<?xml version="1.0" standalone="no"?>
<!DOCTYPE svg PUBLIC "-//W3C//DTD SVG 20010904//EN"
 "http://www.w3.org/TR/2001/REC-SVG-20010904/DTD/svg10.dtd">
<svg version="1.0" xmlns="http://www.w3.org/2000/svg"
 width="200.000000pt" height="200.000000pt" viewBox="0 0 200.000000 200.000000"
 preserveAspectRatio="xMidYMid meet">
<metadata>
Created by potrace 1.11, written by Peter Selinger 2001-2013
</metadata>
<g transform="translate(0.000000,200.000000) scale(0.100000,-0.100000)"
fill="#000000" stroke="none">
<path d="M731 1451 l44 -49 83 -1 82 -1 0 -45 c0 -44 -1 -45 -31 -45 l-31 0
36 -40 c20 -22 36 -44 36 -50 0 -5 14 -25 31 -45 l31 -35 -156 0 c-86 0 -156
-3 -156 -7 0 -4 19 -27 42 -50 l42 -43 83 0 83 0 0 -87 0 -88 40 -45 39 -45 1
50 c3 204 0 657 -5 665 -4 6 -74 10 -172 10 l-166 0 44 -49z"/>
<path d="M653 1470 c-1 -11 2 -22 8 -25 5 -4 8 3 6 14 -4 28 -12 34 -14 11z"/>
<path d="M1141 1383 c7 -10 24 -30 38 -45 l25 -28 -42 0 -42 0 0 -44 0 -44 45
-4 45 -3 0 48 0 48 82 -3 82 -3 0 -85 1 -85 -168 -5 -167 -5 85 -86 85 -86 0
43 0 44 40 0 c22 0 41 -3 41 -7 1 -5 2 -45 3 -90 2 -81 2 -81 44 -127 l42 -46
0 178 1 177 39 -45 40 -45 0 183 0 182 -166 0 c-157 0 -166 -1 -153 -17z"/>
<path d="M824 1324 c-1 -13 2 -21 7 -18 11 6 12 31 2 37 -5 3 -9 -6 -9 -19z"/>
<path d="M655 1140 c3 -5 8 -10 11 -10 2 0 4 5 4 10 0 6 -5 10 -11 10 -5 0 -7
-4 -4 -10z"/>
<path d="M660 1081 c0 -5 5 -13 10 -16 6 -3 10 -2 10 4 0 5 -4 13 -10 16 -5 3
-10 2 -10 -4z"/>
<path d="M449 738 c-7 -18 -3 -111 5 -115 5 -4 12 -1 14 5 2 7 11 12 21 12 41
0 58 70 22 90 -17 9 -59 14 -62 8z m56 -48 c0 -16 -6 -26 -17 -28 -14 -3 -18
3 -18 28 0 25 4 31 18 28 11 -2 17 -12 17 -28z"/>
<path d="M589 728 c-8 -83 -7 -108 6 -108 7 0 15 6 18 13 4 10 7 10 18 0 19
-19 45 -17 30 1 -8 10 -9 16 -1 21 18 11 12 63 -9 75 -27 14 -61 13 -62 -2z
m56 -38 c0 -16 -6 -26 -17 -28 -14 -3 -18 3 -18 28 0 25 4 31 18 28 11 -2 17
-12 17 -28z"/>
<path d="M740 720 c-11 -11 -20 -29 -20 -40 0 -27 35 -60 63 -60 50 0 76 70
39 103 -25 23 -58 21 -82 -3z m74 -22 c13 -21 -2 -51 -26 -56 -16 -3 -48 23
-48 38 0 15 32 41 48 38 8 -2 20 -11 26 -20z"/>
<path d="M890 735 c0 -3 7 -17 16 -30 15 -23 15 -27 -1 -51 -22 -33 -9 -46 15
-15 l18 24 13 -21 c8 -12 20 -22 27 -22 10 0 9 8 -6 32 -19 29 -19 33 -5 55
20 31 7 44 -15 15 -17 -22 -17 -22 -30 -2 -11 18 -32 28 -32 15z"/>
<path d="M1040 680 c0 -33 4 -60 10 -60 6 0 10 27 10 60 0 33 -4 60 -10 60 -6
0 -10 -27 -10 -60z"/>
<path d="M1300 699 c0 -22 5 -49 10 -60 12 -22 59 -26 78 -7 14 14 16 108 2
108 -5 0 -10 -20 -10 -45 0 -32 -5 -47 -15 -51 -25 -10 -45 16 -45 57 0 22 -4
39 -10 39 -5 0 -10 -18 -10 -41z"/>
<path d="M1462 728 c-19 -19 -14 -37 13 -50 28 -13 34 -39 8 -35 -10 1 -20 -2
-23 -8 -8 -16 46 -17 59 -1 16 19 5 53 -20 61 -25 8 -25 25 2 25 11 0 17 5 14
10 -8 14 -38 13 -53 -2z"/>
<path d="M1120 675 c0 -30 5 -55 10 -55 6 0 10 16 10 35 0 33 1 34 25 23 19
-8 28 -8 40 2 13 11 15 8 15 -24 0 -20 5 -36 10 -36 11 0 13 9 10 65 -2 49 -5
53 -28 32 -23 -21 -46 -22 -62 -2 -22 27 -30 16 -30 -40z"/>
</g>
</svg>
